<svg width="344mm" height="347mm" version="1.1" viewBox="0 0 344 347" xmlns="http://www.w3.org/2000/svg">
	<g fill="none" stroke-linejoin="round" stroke-width="5">
		<path d="m2.5 302s23-21 36-25c12-4.1 42-13 52-19 9.4-5.9 8.9-4 20-13-5.6 21 4.2 56 62 60 37 2.6 65-22 58-49 19 14 26 21 65 38 18 7.7 24 17 46 50-57-0.75-339 0-339 0z" stroke="#0a5abe"/>
		<path d="m110 245c12-0.066 16-5.3 16-34 0.16-8.7-6.7-15-7.6-18-2.3-8-1.1-19-2.2-23-1-4.7-21-24-21-29 0-4.5 7.6-15-2.4-23-10-8.1-9.8-3.4-24-17 19 13 19 5.1 20 0.78 0.76-4.1-10-4.7-19-18 18 15 31 12 8.1 0.13 27 7 17-15 33-41-1.2-4.9-3.5-3.8-13-4.5 6.2-2.2 12-0.22 17-3.6 10-6.5 25-20 32-23 3.6-1.1 10-1.2-1.5-9.7 12 6.6 16 6.4 21 4.6 7.5-2.4 16 1.1 19 1.1 2.4 0 13-5.1 16-1.2-24 1.7-1.6 6.1 3.2 7.5 6.7 2 12 6.5 20 13 4.8 4 9.1 2.6 14 5.6 6.3 3.5 10 6.6 13 15 1.9 6.1 3.4 6.3 5 11 1.6 5.1 2.8 11 2.4 16-0.4 5.5 1.8 15 2 22 0.25 6.8 3.2 14 3.2 16 0 2.1 3.1 27-3.3 33-4.5 4.3-11 24-14 26s3.1 3.3 9.2-3.4c-0.6 6.7-13 8.2-18 12-12 8.7-11 19-13 25-3 13-7.8 5.2-8.4 15-1.1 17-9.8 40 12 35-1.8 21-1.9 45-54 45-56 0.42-61-33-65-56z" stroke="#3f0000" stroke-linecap="round"/>
		<path d="m128 211c8.9 14 20 35 39 35s39-4.1 48-29c-10 8.6-19 8.1-27 4.9-16 4.3-19 4.7-36-1.3-14 6.2-17-1.9-25-9.8z" stroke="#3d0000" stroke-linecap="round"/>
	</g>
	<g transform="translate(-7.3 -14)" fill="none" stroke-linecap="round" stroke-linejoin="round" stroke-width="4">
		<path d="m209 178c3.5 11 18 13 10 26" stroke="#ad7152"/>
		<path d="m153 178c-11 9.9-13 15-11 25" stroke="#ac7153"/>
	</g>
	<g fill="none" stroke-linecap="round" stroke-linejoin="round">
		<path d="m144 184s8.9 5.2 13 8.7c5.5 4.9 20 5.4 29 0.47 6.2-3.3 15-7.4 15-7.4s-18-1.8-21-2.7c-5.3-1.6-15-0.53-21 0.49-4.8 0.83-15 0.43-15 0.43s16 5.5 29 4.9c11-0.52 28-3.2 28-3.2" stroke="#652e1f" stroke-width="4"/>
		<path d="m116 164c-0.76-13-3.5-20-3-28 0.66-8.7 5.7-15 4.6-30-0.33-4.6 1.8-17 4.4-20 3-2.9 6.5-16 8-19 2.7-6.2 10-15 15-18 0.12 6.7-0.52 16-3.9 26 11-55 20-19 22 18-2.2-56 8.8-54 3.8-3.1 5.1-38 10-39 4.7-2.1 7-6.6 4.4 2 9.8-7.8 2.4-4.3 7.9-5.6 5.4-1.5-5.4 9-12 11-7.7 16 3.8 5.3 17-2 28-5.6 13-4.7 18-18 22-18 3.1 0.26 5.7 12-1.9 23 12-9.8 12-9.9 9.7 0.88-0.74 3.5-0.76 14-0.53 17 0.23 2.9 3.5 14 3.3 20-0.14 5.1-1.4 18-1.4 20s-2.9 12-2.9 12 2-6.5 6-5.1c2.5 0.92-0.087 19-5.4 18-4.5-0.89-3.4 8.3-3.4 8.3" stroke="#450000" stroke-width="4"/>
		<path d="m170 120c3.1 2.5 0.44 12-3.5 22-2.6 6.9-7.8 11-8.1 15-0.19 2 0.64 6 8.5 7.7-8.6-11 12-7.6 3 0.11 5.4 1.1 4.6 0.83 9.4 0.42-9.2-9.1 14-8.9 2.9 0.11 4.5 0.096 7.2-1.2 6.7-6.7" stroke="#5f3828" stroke-width="2.3"/>
	</g>
	<g transform="translate(-7.3 -14)" fill="none" stroke-linecap="round" stroke-linejoin="round">
		<g stroke="#000" stroke-width="3">
			<path d="m168 140c-11 1.3-27-7-33-0.87 5.5-21 34-17 33 0.87z"/>
			<path d="m198 143c9.6 2 23-5 30-1.5-4.2-18-28-14-30 1.5z"/>
		</g>
		<g stroke="#442721" stroke-width="4">
			<path d="m172 125c-17-3-25-7.3-43-2.9 11-12 25-12 43 2.9z"/>
			<path d="m193 128c15-1.8 25-5.9 39-2.8-12-7.9-29-8.6-39 2.8z"/>
		</g>
		<g stroke="#243b9b" stroke-width="4">
			<path d="m152 137c2.9-9e-3 5.7-1.3 5.8-3.9 0.053-2.6-2-5.4-4.9-5.4-2.9-5.9e-4 -4.8 3.3-4.9 4.8-0.084 1.5 1.1 4.5 4 4.5z"/>
			<path d="m213 142c2.9-9e-3 5.7-1.3 5.8-3.9 0.053-2.6-2-5.4-4.9-5.4-2.9-5.9e-4 -4.8 3.3-4.9 4.8-0.084 1.5 1.1 4.5 4 4.5z"/>
		</g>
	</g>
</svg>
