<?xml version="1.0" encoding="UTF-8"?>
<svg width="68.412186" height="82.267235" version="1.1" viewBox="0 0 68.412186 82.267235" xmlns="http://www.w3.org/2000/svg" xmlns:cc="http://creativecommons.org/ns#" xmlns:dc="http://purl.org/dc/elements/1.1/" xmlns:rdf="http://www.w3.org/1999/02/22-rdf-syntax-ns#">
 <!-- Generator: Sketch 41.1 (35376) - http://www.bohemiancoding.com/sketch -->
 <title>Page 1</title>
 <desc>Created with Sketch.</desc>
 <g transform="translate(-11.061418,-8.5779683)" fill="none" fill-rule="evenodd">
  <g transform="translate(0,-1)">
   <g transform="translate(0 .945)">
    <path d="m24.584442 87.478432-5.279899-3.902529c-3.477754-1.744451-5.638159-4.998382-5.638159-8.493578v-39.662122c0-3.495196 2.160405-6.749128 5.636916-8.49253l30.656638-14.706348c1.704733-0.854917 3.646613-1.307027 5.615809-1.307027 1.967954 0 3.909834 0.45211 5.615808 1.307027l10.180531 4.780439c2.930202 1.469618 4.906847 4.01444 5.46309 6.868711-1.179531-2.12628-3.839063-2.704267-6.938125-1.174856l-33.637738 17.553606c-4.194162 2.071732-7.287017 4.396269-7.289499 8.668758v35.018049c-0.0024 2.558458 1.220503 4.215844 3.099062 4.696277-0.617081 0.09021-1.239128 0.15315-1.868625 0.15315-1.969196 0-3.911076-0.452109-5.615809-1.307027m48.030497-72.30294-10.180531-4.779389c-2.121914-1.0647135-4.490908-1.5965455-6.858661-1.5965455-2.368995 0-4.737989 0.531832-6.859903 1.5965455l-30.655396 14.705299c-4.242586 2.128377-6.85742 6.062046-6.85742 10.318801v39.662122c0 4.255705 2.614834 8.190424 6.858661 10.318801l5.2799 3.903578c2.123156 1.063664 4.489667 1.595496 6.858662 1.595496s4.735506-0.531832 6.85742-1.595496l35.557268-17.829488c4.243828-2.128377 6.858661-6.063095 6.858661-10.318801v-35.662122c0-4.256754-2.614833-8.190424-6.858661-10.318801" fill="#197d7c" stroke-width="1.14124"/>
    <path d="m62.207804 64.559096-11.281145 5.21078c-0.298996 0.134297-0.518891 0.285688-0.520473 0.562831v2.27819c0 0.278365 0.242044 0.394349 0.54104 0.258829l11.455162-5.373157c0.298997-0.134299 0.344873-0.391908 0.346455-0.669051v-2.009594c0-0.277142-0.242044-0.393127-0.541039-0.258828" fill="#47b353" stroke-width="1.38976"/>
    <path d="m41.330225 51.558146c0.231-0.117 0.421 0.027 0.424 0.329l0.024 2.467c1.033-0.411 1.93-0.521 2.743-0.333 0.176 0.047 0.254 0.287 0.182 0.572l-0.543 2.186c-0.042 0.165-0.135 0.332-0.247 0.436-0.047 0.046-0.095 0.082-0.143 0.106-0.073 0.037-0.145 0.049-0.214 0.035-0.371-0.084-1.253-0.277-2.641 0.426-1.456 0.737-1.965 2.002-1.955 2.941 0.012 1.121 0.587 1.461 2.573 1.495 2.646 0.044 3.789 1.2 3.817 3.865 0.027 2.617-1.37 5.427-3.507 7.149l0.047 2.442c3e-3 0.294-0.188 0.631-0.419 0.748l-1.446 0.833c-0.232 0.117-0.422-0.027-0.425-0.321l-0.025-2.402c-1.239 0.515-2.494 0.639-3.296 0.317-0.151-0.059-0.216-0.282-0.156-0.536l0.524-2.208c0.042-0.174 0.134-0.348 0.259-0.459 0.044-0.043 0.09-0.076 0.136-0.099 0.083-0.042 0.164-0.051 0.233-0.025 0.864 0.291 1.969 0.155 3.032-0.383 1.35-0.683 2.253-2.06 2.239-3.428-0.013-1.241-0.685-1.757-2.319-1.769-2.08 6e-3 -4.019-0.404-4.051-3.466-0.026-2.521 1.285-5.144 3.36-6.803l-0.026-2.465c-3e-3 -0.303 0.182-0.636 0.42-0.756z" fill="#fefefe"/>
    <g fill="#3e474a">
     <path d="m98.6338 48.1006h6.311c0.891 0.028 1.725 0.172 2.48 0.426 0.719 0.24 1.351 0.587 1.88 1.03 0.517 0.434 0.914 0.952 1.21 1.579 0.29 0.619 0.431 1.353 0.416 2.208 0 0.807-0.159 1.526-0.474 2.138-0.325 0.632-0.752 1.15-1.301 1.582-0.573 0.449-1.246 0.806-1.999 1.061-0.768 0.259-1.593 0.399-2.427 0.412h-6.096zm10.841-9.299c-0.329 0.559-0.747 1.017-1.278 1.399-0.551 0.395-1.193 0.704-1.912 0.915-0.746 0.221-1.519 0.34-2.27 0.354h-5.381v-8.9h5.221c0.839 0.015 1.668 0.119 2.466 0.311 0.734 0.175 1.386 0.45 1.936 0.814 0.515 0.341 0.915 0.768 1.224 1.304 0.295 0.514 0.445 1.173 0.445 1.958 0 0.724-0.148 1.327-0.451 1.845zm7.035 8.064c-0.714-0.862-1.575-1.608-2.559-2.217-0.121-0.074-0.243-0.146-0.367-0.217 0.785-0.524 1.483-1.141 2.078-1.836 0.636-0.743 1.141-1.59 1.504-2.515 0.365-0.931 0.56-1.966 0.581-3.086 0.02-1.942-0.387-3.651-1.211-5.081-0.81-1.406-1.911-2.578-3.271-3.487-1.319-0.879-2.838-1.536-4.516-1.954-1.625-0.404-3.31-0.618-5.025-0.636h-11.463c-0.8 0-1.449 0.617-1.449 1.378v36.651c0 0.761 0.649 1.378 1.449 1.378h12.352c1.778-0.018 3.529-0.286 5.204-0.795 1.701-0.518 3.229-1.276 4.542-2.255 1.344-1.001 2.43-2.26 3.228-3.741 0.811-1.502 1.212-3.243 1.192-5.16 0-1.24-0.201-2.417-0.596-3.498-0.395-1.08-0.958-2.065-1.673-2.929z"/>
     <path d="m139.9957 48.9461h-6.328l3.189-9.827zm0.317-22.149c-0.191-0.572-0.749-0.96-1.381-0.96h-4.103c-0.629 0-1.185 0.385-1.378 0.954l-12.443 36.652c-0.142 0.419-0.065 0.877 0.208 1.234 0.273 0.356 0.708 0.566 1.171 0.566h4.898c0.634 0 1.195-0.393 1.383-0.969l2.781-8.522h10.725l2.732 8.516c0.186 0.58 0.749 0.975 1.386 0.975h4.871c0.462 0 0.896-0.209 1.169-0.564 0.273-0.354 0.351-0.811 0.211-1.23z"/>
     <path d="m181.9755 48.2819c-0.655-0.84-1.428-1.599-2.301-2.259-0.839-0.636-1.754-1.212-2.719-1.716-0.947-0.494-1.948-0.938-2.976-1.322-0.988-0.366-1.989-0.702-2.989-1.002-0.848-0.247-1.756-0.537-2.699-0.861-0.875-0.299-1.697-0.678-2.444-1.127-0.676-0.406-1.238-0.905-1.672-1.484-0.376-0.502-0.566-1.125-0.578-1.882 0-0.751 0.147-1.378 0.451-1.92 0.318-0.565 0.732-1.028 1.266-1.413 0.553-0.4 1.199-0.706 1.919-0.909 1.684-0.477 3.573-0.406 4.938 0.101 0.739 0.274 1.383 0.662 1.911 1.15 0.536 0.496 0.974 1.103 1.303 1.803 0.346 0.737 0.584 1.577 0.707 2.495 0.091 0.687 0.707 1.203 1.437 1.203h5.029c0.39 0 0.763-0.148 1.035-0.413 0.273-0.264 0.422-0.622 0.414-0.992-0.04-1.878-0.475-3.612-1.294-5.152-0.81-1.519-1.903-2.833-3.247-3.906-1.326-1.057-2.865-1.887-4.574-2.47-3.243-1.103-6.847-1.162-10.29-0.143-1.656 0.491-3.16 1.222-4.47 2.17-1.336 0.966-2.432 2.168-3.258 3.569-0.852 1.444-1.284 3.093-1.284 4.903 0 1.822 0.439 3.444 1.304 4.822 0.821 1.307 1.893 2.456 3.186 3.413 1.245 0.923 2.64 1.71 4.145 2.34 1.445 0.605 2.885 1.129 4.283 1.56 0.918 0.281 1.875 0.593 2.871 0.939 0.905 0.315 1.745 0.712 2.495 1.18 0.688 0.429 1.234 0.94 1.666 1.56 0.381 0.548 0.566 1.229 0.566 2.084 0 0.76-0.158 1.381-0.483 1.898-0.355 0.565-0.799 1.019-1.356 1.388-0.58 0.382-1.255 0.67-2.011 0.854-1.812 0.444-3.783 0.374-5.337-0.103-0.833-0.255-1.575-0.636-2.205-1.133-0.628-0.495-1.15-1.111-1.553-1.829-0.41-0.73-0.686-1.594-0.821-2.565-0.095-0.685-0.71-1.197-1.436-1.197h-5.003c-0.392 0-0.767 0.15-1.039 0.417-0.273 0.267-0.421 0.628-0.41 1 0.06 1.963 0.559 3.749 1.484 5.308 0.903 1.523 2.095 2.83 3.542 3.887 1.421 1.04 3.052 1.847 4.846 2.398 1.777 0.545 3.619 0.821 5.475 0.821 1.66 0 3.342-0.225 4.998-0.668 1.686-0.451 3.224-1.137 4.57-2.037 1.38-0.923 2.521-2.093 3.39-3.48 0.9-1.435 1.356-3.122 1.356-5.01 0-1.237-0.192-2.393-0.57-3.434-0.374-1.027-0.901-1.981-1.568-2.836"/>
     <path d="m214.0874 25.837h-4.633c-0.8 0-1.449 0.616-1.449 1.377v14.381h-12.906v-14.381c0-0.761-0.648-1.377-1.448-1.377h-4.607c-0.8 0-1.449 0.616-1.449 1.377v36.652c0 0.761 0.649 1.377 1.449 1.377h4.607c0.8 0 1.448-0.616 1.448-1.377v-15.564h12.906v15.564c0 0.761 0.649 1.377 1.449 1.377h4.633c0.8 0 1.449-0.616 1.449-1.377v-36.652c0-0.761-0.649-1.377-1.449-1.377"/>
     <polygon points="92.5527 71.5961 90.8117 71.5961 90.8117 70.8571 95.2427 70.8571 95.2427 71.5961 93.4897 71.5961 93.4897 76.2861 92.5527 76.2861"/>
     <polygon points="97.7816 76.2861 96.8676 76.2861 96.8676 70.8571 97.7816 70.8571 97.7816 73.1281 99.7226 73.1281 99.7226 70.8571 100.6396 70.8571 100.6396 76.2861 99.7226 76.2861 99.7226 73.8631 97.7816 73.8631"/>
     <polygon points="106.4292 76.2857 102.7352 76.2857 102.7352 70.8577 106.4012 70.8577 106.4012 71.5957 103.6802 71.5957 103.6802 73.1277 106.0292 73.1277 106.0292 73.8517 103.6802 73.8517 103.6802 75.5557 106.4292 75.5557"/>
     <path d="m115.1096 73.8256v1.73h1.027c0.149-2e-3 0.285-0.024 0.408-0.065s0.228-0.098 0.318-0.17c0.088-0.072 0.158-0.16 0.209-0.265 0.051-0.104 0.077-0.22 0.077-0.35 0-0.137-0.022-0.259-0.067-0.367-0.045-0.109-0.109-0.2-0.192-0.275-0.084-0.074-0.186-0.132-0.306-0.173s-0.255-0.062-0.404-0.065zm0-0.683h0.902c0.141-2e-3 0.272-0.02 0.394-0.054 0.121-0.033 0.226-0.083 0.315-0.149 0.089-0.065 0.16-0.146 0.212-0.242s0.078-0.206 0.078-0.329c0-0.137-0.024-0.254-0.074-0.352-0.05-0.096-0.12-0.176-0.21-0.238-0.09-0.061-0.196-0.107-0.319-0.136s-0.258-0.044-0.404-0.047h-0.894zm-0.945 3.144v-5.429h1.823c0.275 3e-3 0.531 0.033 0.77 0.09 0.24 0.057 0.449 0.146 0.628 0.265s0.319 0.271 0.421 0.456 0.152 0.405 0.149 0.659c-2e-3 0.268-0.081 0.497-0.235 0.687-0.154 0.191-0.362 0.338-0.623 0.442 0.159 0.042 0.301 0.103 0.425 0.181s0.228 0.172 0.312 0.281c0.083 0.11 0.148 0.231 0.192 0.363 0.044 0.134 0.067 0.275 0.067 0.424 0 0.258-0.05 0.486-0.15 0.682-0.099 0.196-0.237 0.36-0.413 0.492-0.177 0.132-0.386 0.232-0.627 0.3-0.242 0.069-0.503 0.105-0.783 0.107z"/>
     <path d="m122.8355 73.2221c-2e-3 -0.204-0.022-0.407-0.059-0.608-0.036-0.201-0.098-0.381-0.184-0.538-0.087-0.159-0.201-0.286-0.343-0.385-0.143-0.098-0.321-0.147-0.535-0.147-0.212 0-0.388 0.049-0.528 0.147-0.139 0.099-0.251 0.227-0.333 0.386-0.083 0.159-0.14 0.338-0.173 0.539-0.032 0.2-0.05 0.402-0.053 0.606v0.7c3e-3 0.204 0.022 0.406 0.055 0.607 0.035 0.2 0.092 0.38 0.175 0.54 0.082 0.16 0.194 0.29 0.333 0.39 0.14 0.099 0.316 0.149 0.528 0.149 0.214 0 0.392-0.05 0.535-0.149 0.142-0.1 0.256-0.229 0.343-0.388 0.086-0.16 0.147-0.339 0.182-0.541 0.035-0.201 0.055-0.404 0.057-0.608zm0.945 0.7c0 0.321-0.043 0.629-0.13 0.923-0.086 0.295-0.215 0.554-0.386 0.78-0.171 0.224-0.385 0.403-0.643 0.536-0.257 0.133-0.558 0.199-0.903 0.199-0.343 0-0.641-0.067-0.894-0.201-0.254-0.134-0.465-0.314-0.634-0.538-0.168-0.225-0.295-0.484-0.38-0.778-0.085-0.293-0.127-0.6-0.127-0.921v-0.693c0-0.214 0.018-0.422 0.057-0.626 0.037-0.204 0.094-0.396 0.168-0.577 0.075-0.18 0.168-0.346 0.278-0.499 0.111-0.153 0.242-0.284 0.392-0.393 0.151-0.11 0.321-0.196 0.51-0.258 0.19-0.061 0.398-0.093 0.626-0.093 0.345 0 0.646 0.067 0.904 0.202 0.257 0.134 0.472 0.314 0.645 0.538 0.172 0.226 0.301 0.486 0.387 0.782 0.087 0.295 0.13 0.603 0.13 0.924z"/>
     <path d="m129.3656 70.8575 8e-3 3.636c-3e-3 0.278-0.05 0.533-0.141 0.762-0.092 0.23-0.22 0.427-0.385 0.591-0.164 0.164-0.363 0.291-0.598 0.38-0.233 0.089-0.495 0.134-0.785 0.134-0.283 0-0.539-0.045-0.769-0.134s-0.427-0.215-0.592-0.378-0.293-0.36-0.384-0.59c-0.092-0.229-0.139-0.485-0.141-0.765l8e-3 -3.636h0.925l7e-3 3.636c3e-3 0.166 0.025 0.319 0.067 0.458 0.042 0.14 0.102 0.259 0.181 0.359 0.078 0.101 0.175 0.18 0.292 0.236 0.116 0.056 0.251 0.084 0.406 0.084 0.156 0 0.295-0.028 0.415-0.084s0.221-0.135 0.302-0.236c0.081-0.1 0.142-0.219 0.185-0.359 0.041-0.139 0.063-0.292 0.066-0.458l8e-3 -3.636z"/>
     <path d="m132.3518 73.4456h0.866c0.157 0 0.301-0.021 0.432-0.063 0.13-0.043 0.243-0.103 0.339-0.181 0.095-0.079 0.169-0.174 0.221-0.288 0.052-0.112 0.079-0.243 0.079-0.389 0-0.152-0.025-0.286-0.075-0.402-0.05-0.118-0.121-0.216-0.214-0.296-0.092-0.079-0.205-0.139-0.339-0.18-0.133-0.041-0.282-0.063-0.447-0.065h-0.862zm0.956 0.723h-0.956v2.117h-0.941v-5.428h1.803c0.293 3e-3 0.563 0.038 0.81 0.107 0.247 0.068 0.461 0.17 0.641 0.305 0.181 0.136 0.32 0.305 0.419 0.509 0.1 0.204 0.149 0.442 0.149 0.716 0 0.184-0.025 0.351-0.076 0.501-0.051 0.151-0.122 0.287-0.214 0.409-0.091 0.121-0.201 0.228-0.329 0.32-0.128 0.093-0.269 0.171-0.423 0.235l1.207 2.282v0.044h-1.003z"/>
     <polygon points="137.0664 76.2861 137.0664 70.8571 138.0194 70.8571 139.8704 74.5831 139.8784 70.8571 140.8304 70.8571 140.8304 76.2861 139.8814 76.2861 138.0234 72.5511 138.0194 76.2861"/>
     <polygon points="146.6239 76.2857 142.9299 76.2857 142.9299 70.8577 146.5959 70.8577 146.5959 71.5957 143.8749 71.5957 143.8749 73.1277 146.2239 73.1277 146.2239 73.8517 143.8749 73.8517 143.8749 75.5557 146.6239 75.5557"/>
     <polygon points="149.014 74.265 152.154 74.265 152.154 73.546 149.014 73.546"/>
     <path d="m155.5864 74.2615h1.309l-0.646-2.128zm1.545 0.765h-1.784l-0.392 1.26h-0.973l1.855-5.429h0.827l1.82 5.429h-0.969z"/>
     <path d="m163.9357 75.6081c-0.096 0.109-0.21 0.21-0.341 0.302s-0.277 0.171-0.439 0.238-0.338 0.119-0.527 0.157c-0.19 0.037-0.392 0.055-0.606 0.055-0.343 0-0.646-0.063-0.91-0.19-0.264-0.126-0.487-0.299-0.668-0.519-0.182-0.221-0.32-0.48-0.416-0.778-0.095-0.298-0.144-0.619-0.147-0.962v-0.67c0-0.344 0.047-0.664 0.141-0.962 0.094-0.299 0.229-0.558 0.406-0.78s0.393-0.396 0.649-0.523c0.256-0.129 0.549-0.193 0.878-0.193 0.295 0 0.559 0.039 0.792 0.115 0.233 0.078 0.433 0.189 0.6 0.335 0.167 0.145 0.3 0.322 0.398 0.531 0.098 0.208 0.16 0.442 0.186 0.701h-0.925c-0.023-0.147-0.06-0.279-0.11-0.395-0.05-0.117-0.116-0.217-0.2-0.299s-0.185-0.144-0.304-0.188-0.259-0.065-0.421-0.065c-0.199 0-0.369 0.046-0.512 0.139-0.142 0.094-0.26 0.219-0.354 0.377s-0.164 0.341-0.209 0.548c-0.044 0.208-0.068 0.425-0.07 0.651v0.678c2e-3 0.226 0.027 0.443 0.072 0.649 0.046 0.206 0.118 0.389 0.216 0.546 0.098 0.158 0.224 0.284 0.378 0.379 0.155 0.094 0.34 0.143 0.557 0.145 0.089 0 0.181-5e-3 0.275-0.016 0.094-0.012 0.184-0.03 0.268-0.054 0.085-0.026 0.163-0.057 0.234-0.095 0.07-0.04 0.128-0.087 0.172-0.145l8e-3 -1.085h-1.031v-0.696h1.952z"/>
     <path d="m167.0707 74.2615h1.309l-0.646-2.128zm1.545 0.765h-1.784l-0.392 1.26h-0.973l1.855-5.429h0.827l1.82 5.429h-0.969z"/>
     <polygon points="173.876 75.5485 175.111 75.5485 175.111 76.2865 171.715 76.2865 171.715 75.5485 172.923 75.5485 172.923 71.5995 171.715 71.5995 171.715 70.8575 175.111 70.8575 175.111 71.5995 173.876 71.5995"/>
     <polygon points="177.2611 76.2861 177.2611 70.8571 178.2141 70.8571 180.0651 74.5831 180.0731 70.8571 181.0251 70.8571 181.0251 76.2861 180.0761 76.2861 178.2181 72.5511 178.2141 76.2861"/>
     <path d="m191.7797 74.8882c0-0.129-0.028-0.243-0.084-0.341-0.057-0.099-0.136-0.184-0.24-0.26-0.103-0.074-0.225-0.139-0.368-0.195-0.142-0.056-0.297-0.107-0.465-0.155-0.224-0.062-0.446-0.139-0.664-0.231-0.219-0.092-0.413-0.205-0.584-0.337-0.172-0.133-0.31-0.289-0.416-0.467-0.106-0.177-0.159-0.382-0.159-0.616s0.053-0.443 0.159-0.629c0.106-0.185 0.248-0.341 0.425-0.471 0.178-0.129 0.385-0.229 0.62-0.299 0.235-0.069 0.481-0.104 0.737-0.104 0.275 0 0.531 0.041 0.771 0.121 0.239 0.081 0.448 0.195 0.627 0.34s0.321 0.319 0.425 0.521c0.105 0.203 0.158 0.428 0.161 0.674h-0.941c-0.013-0.137-0.044-0.262-0.092-0.375-0.049-0.113-0.117-0.211-0.204-0.293-0.088-0.082-0.194-0.145-0.32-0.19-0.125-0.045-0.27-0.067-0.435-0.067-0.141 0-0.272 0.018-0.392 0.052s-0.224 0.086-0.312 0.153c-0.087 0.067-0.156 0.148-0.205 0.242-0.05 0.095-0.075 0.202-0.075 0.321 0 0.127 0.034 0.237 0.102 0.33s0.157 0.175 0.266 0.244c0.11 0.07 0.237 0.13 0.379 0.181 0.143 0.051 0.291 0.097 0.445 0.139 0.238 0.068 0.465 0.15 0.682 0.249 0.217 0.098 0.408 0.216 0.573 0.354 0.164 0.138 0.295 0.298 0.392 0.479 0.096 0.181 0.145 0.389 0.145 0.623 0 0.241-0.054 0.453-0.161 0.637s-0.251 0.339-0.431 0.462c-0.181 0.124-0.39 0.218-0.627 0.282-0.238 0.063-0.487 0.095-0.746 0.095-0.175 0-0.348-0.016-0.521-0.049-0.173-0.031-0.338-0.08-0.496-0.145-0.158-0.064-0.305-0.144-0.441-0.24s-0.254-0.207-0.355-0.332c-0.1-0.126-0.18-0.266-0.237-0.422-0.058-0.155-0.088-0.326-0.09-0.512h0.944c0.014 0.164 0.051 0.306 0.114 0.428s0.146 0.224 0.251 0.304c0.105 0.081 0.227 0.143 0.367 0.184 0.14 0.04 0.294 0.061 0.464 0.061 0.142 0 0.274-0.017 0.396-0.048 0.123-0.033 0.231-0.081 0.322-0.144 0.091-0.064 0.163-0.142 0.216-0.236 0.052-0.093 0.078-0.199 0.078-0.318"/>
     <polygon points="195.397 76.2861 194.483 76.2861 194.483 70.8571 195.397 70.8571 195.397 73.1281 197.338 73.1281 197.338 70.8571 198.255 70.8571 198.255 76.2861 197.338 76.2861 197.338 73.8631 195.397 73.8631"/>
     <polygon points="204.0446 76.2857 200.3506 76.2857 200.3506 70.8577 204.0166 70.8577 204.0166 71.5957 201.2956 71.5957 201.2956 73.1277 203.6446 73.1277 203.6446 73.8517 201.2956 73.8517 201.2956 75.5557 204.0446 75.5557"/>
     <polygon points="206.1324 70.858 207.0734 70.858 207.0734 75.556 209.7944 75.556 209.7944 76.286 206.1324 76.286"/>
     <polygon points="211.8746 70.858 212.8156 70.858 212.8156 75.556 215.5366 75.556 215.5366 76.286 211.8746 76.286"/>
    </g>
   </g>
  </g>
 </g>
 <metadata>
  <rdf:RDF>
   <cc:Work rdf:about="">
    <dc:title>Page 1</dc:title>
   </cc:Work>
  </rdf:RDF>
 </metadata>
</svg>
