<?xml version="1.0" encoding="UTF-8" standalone="no"?>
<svg
   width="161.8403"
   height="77.519485"
   viewBox="0 0 161.8403 77.519485"
   fill="none"
   version="1.1"
   id="svg26"
   sodipodi:docname="skill_Arduino.svg"
   inkscape:version="1.1.2 (0a00cf5339, 2022-02-04)"
   xmlns:inkscape="http://www.inkscape.org/namespaces/inkscape"
   xmlns:sodipodi="http://sodipodi.sourceforge.net/DTD/sodipodi-0.dtd"
   xmlns="http://www.w3.org/2000/svg"
   xmlns:svg="http://www.w3.org/2000/svg">
  <defs
     id="defs30" />
  <sodipodi:namedview
     id="namedview28"
     pagecolor="#ffffff"
     bordercolor="#666666"
     borderopacity="1.0"
     inkscape:pageshadow="2"
     inkscape:pageopacity="0.0"
     inkscape:pagecheckerboard="0"
     showgrid="false"
     fit-margin-top="0"
     fit-margin-left="0"
     fit-margin-right="0"
     fit-margin-bottom="0"
     inkscape:zoom="3.7706422"
     inkscape:cx="30.631387"
     inkscape:cy="43.626521"
     inkscape:window-width="1871"
     inkscape:window-height="1056"
     inkscape:window-x="49"
     inkscape:window-y="24"
     inkscape:window-maximized="1"
     inkscape:current-layer="svg26" />
  <path
     d="m 161.823,38.8862 c 0,-21.3444 -17.829,-38.545556 -39.819,-38.545556 -2.02,-0.05352 -4.042,0.054364 -6.045,0.322627 C 98.758,3.21033 87.2793,15.3174 80.9116,24.8773 74.544,15.3174 63.0822,3.21033 45.8471,0.663271 43.8439,0.394575 41.8225,0.286688 39.8021,0.340644 17.8464,0.340644 0,17.5418 0,38.8862 c 0,21.3443 17.8464,38.6304 39.819,38.6304 2.017,0.0249 4.0328,-0.1114 6.0281,-0.4076 17.2181,-2.547 28.6799,-14.654 35.0475,-24.197 6.3677,9.543 17.8464,21.65 35.0474,24.197 2.003,0.2683 4.025,0.3762 6.045,0.3227 21.667,-0.3226 39.819,-17.5238 39.819,-38.5455 z M 43.6396,63.4228 c -1.3656,0.2536 -2.7551,0.3561 -4.1432,0.3057 -14.3314,0 -26.1158,-11.1391 -26.1158,-24.8423 0,-13.7032 11.7844,-24.8424 26.4384,-24.8424 1.389,-0.0531 2.7793,0.0552 4.1433,0.3227 16.2502,2.2244 26.1158,18.152 29.3081,24.5197 -3.5149,6.3676 -13.3805,21.9896 -29.6308,24.5366 z M 88.2981,38.8862 c 3.3961,-6.3677 13.0069,-22.2953 29.2569,-24.5197 1.359,-0.2676 2.743,-0.3758 4.127,-0.3227 14.654,0 26.438,11.1392 26.438,24.8424 0,13.7032 -11.784,24.8423 -26.116,24.8423 -1.388,0.0504 -2.777,-0.0521 -4.143,-0.3057 -16.556,-2.547 -26.4385,-18.169 -29.5629,-24.5366 z"
     fill="#007481"
     id="path2" />
  <path
     d="M 52.2486,35.0657 H 28.3572 v 7.6412 h 23.8914 z"
     fill="#007481"
     id="path4" />
  <path
     d="m 124.551,42.7072 h 7.964 V 35.066 h -7.964 v -8.2865 h -7.964 v 8.2865 h -7.963 v 7.6412 h 7.963 v 8.2864 h 7.964 z"
     fill="#007481"
     id="path6" />
  <path
     d="M 161.484,2.6329 C 161.275,2.12581 160.969,1.66436 160.584,1.27447 160.195,0.891386 159.74,0.580863 159.242,0.357525 158.707,0.12176 158.129,0 157.544,0 c -0.585,0 -1.163,0.12176 -1.698,0.357525 -0.498,0.223338 -0.952,0.533861 -1.341,0.916945 -0.386,0.38989 -0.692,0.85134 -0.9,1.35843 -0.229,0.53681 -0.344,1.11475 -0.34,1.69804 0.007,1.14825 0.457,2.24952 1.257,3.07345 0.389,0.37787 0.844,0.6827 1.341,0.89996 0.535,0.23577 1.113,0.35753 1.698,0.35753 0.585,0 1.163,-0.12176 1.698,-0.35753 0.498,-0.21726 0.952,-0.52209 1.342,-0.89996 0.382,-0.39909 0.687,-0.86539 0.899,-1.37541 0.232,-0.53593 0.347,-1.11447 0.34,-1.69804 0.007,-0.58532 -0.115,-1.16503 -0.356,-1.69804 z m -0.934,3.00553 c -0.155,0.39625 -0.393,0.75509 -0.697,1.05279 -0.297,0.29711 -0.641,0.54372 -1.018,0.73015 -0.39,0.17581 -0.812,0.26834 -1.24,0.27169 -0.439,-0.00161 -0.872,-0.09412 -1.274,-0.27169 -0.382,-0.17806 -0.727,-0.42566 -1.018,-0.73015 -0.294,-0.3029 -0.525,-0.66065 -0.68,-1.05279 -0.174,-0.41366 -0.26,-0.85878 -0.254,-1.30749 -0.001,-0.45376 0.085,-0.90344 0.254,-1.32447 0.159,-0.39514 0.39,-0.75774 0.68,-1.06977 0.288,-0.29966 0.635,-0.53666 1.018,-0.6962 0.403,-0.1722 0.836,-0.25894 1.274,-0.254701 0.426,-0.0025 0.849,0.084261 1.24,0.254701 0.379,0.16791 0.724,0.40387 1.018,0.6962 0.301,0.30695 0.538,0.67059 0.697,1.06977 0.169,0.42103 0.255,0.87071 0.254,1.32447 0.006,0.44871 -0.08,0.89383 -0.254,1.30749 z"
     fill="#007481"
     id="path8" />
  <path
     d="m 158.512,4.75548 c 0.231,-0.11325 0.426,-0.28992 0.561,-0.50941 0.125,-0.21663 0.189,-0.46299 0.186,-0.71318 0.003,-0.3931 -0.15,-0.77136 -0.424,-1.05278 -0.411,-0.33233 -0.935,-0.4908 -1.461,-0.44149 h -0.696 -0.594 v 4.22812 h 1.07 v -1.3924 h 0.441 l 0.747,1.3924 h 1.274 z m -1.07,-0.57733 H 157.12 V 3.04046 h 0.356 c 0.459,0 0.68,0.20377 0.68,0.6113 0,0.40753 -0.238,0.52639 -0.714,0.52639 z"
     fill="#007481"
     id="path10" />
  <path
     d="m 14.2731,108.591 1.1566,-4.662 h 6.5538 l 1.2618,4.662 h 5.9931 L 21.9835,85.8098 H 15.6399 L 8.49023,108.591 Z m 6.5539,-9.0425 h -4.3109 l 2.0678,-8.3414 z"
     fill="#007481"
     id="path12" />
  <path
     d="m 31.0822,108.591 h 5.6427 v -7.22 h 2.8388 l 3.4347,7.22 h 6.659 l -4.451,-8.342 c 2.4884,-1.3314 3.7501,-3.7146 3.7501,-6.8339 0,-4.3809 -2.3833,-7.6053 -8.6918,-7.6053 h -9.1825 z m 8.6217,-11.7412 h -2.979 V 90.401 h 2.8739 c 2.6285,0 3.3645,1.0164 3.3645,3.0492 0,2.5234 -1.2967,3.3996 -3.2594,3.3996 z"
     fill="#007481"
     id="path14" />
  <path
     d="m 51.7466,108.591 h 7.5002 c 9.6731,0 11.3203,-6.204 11.3203,-11.601 0,-7.1497 -2.8388,-11.1802 -11.3554,-11.1802 h -7.4651 z m 7.2899,-18.19 c 5.0468,0 5.5024,2.3833 5.5024,6.8343 0,3.8557 -0.3504,6.6937 -5.0118,6.6937 H 57.3892 V 90.401 Z"
     fill="#007481"
     id="path16" />
  <path
     d="m 85.4837,99.7237 c 0,3.4693 -0.9463,4.6263 -3.5048,4.6263 -2.1379,0 -3.4697,-0.876 -3.4697,-4.6614 V 85.8098 H 72.8666 V 100.74 c 0,6.904 4.9767,8.201 8.867,8.201 4.0305,0 9.1825,-1.437 9.1825,-8.166 V 85.8098 h -5.4324 z"
     fill="#007481"
     id="path18" />
  <path
     d="m 94.1968,108.591 h 17.4542 v -4.662 h -5.924 V 90.4711 h 5.924 V 85.8098 H 94.1968 v 4.6613 h 5.8882 v 13.4579 h -5.8882 z"
     fill="#007481"
     id="path20" />
  <path
     d="m 119.838,94.0109 7.781,14.5801 h 5.712 V 85.8098 h -5.257 v 13.6686 l -7.395,-13.6686 h -6.133 v 22.7812 h 5.327 z"
     fill="#007481"
     id="path22" />
  <path
     d="m 144.848,85.4944 c -6.904,0 -9.533,5.0819 -9.533,11.9512 0,7.5354 3.014,11.4954 9.568,11.4954 7.325,0 9.743,-5.152 9.743,-11.7407 0,-8.6918 -3.294,-11.7059 -9.778,-11.7059 z m 0.035,18.8556 c -3.259,0 -3.575,-2.313 -3.575,-6.9044 0,-5.5726 0.526,-7.36 3.54,-7.36 3.33,0 3.785,1.5421 3.785,7.1147 0,5.2567 -0.455,7.1497 -3.75,7.1497 z"
     fill="#007481"
     id="path24" />
</svg>
