<?xml version="1.0" ?><svg viewBox="0 0 60 60" xmlns="http://www.w3.org/2000/svg"><defs><style>.a{fill:#01a650;}.b{fill:#007d49;}.c{fill:#82df5d;}</style></defs><title/><path class="a" d="M60,30a29.80888,29.80888,0,0,1-1.23,8.5c-.09009.34-.2.67-.32007,1A29.96633,29.96633,0,0,1,40.5,58.1a3.61228,3.61228,0,0,1-.35.13c-.21008.08-.43005.16-.65.22l-.35.12a28.72389,28.72389,0,0,1-6.65,1.32,1.98628,1.98628,0,0,1-.35.03c-.21008.02-.43005.03-.65.04-.11.01-.23.01-.35.01-.38.02-.76.03-1.15.03a29.30842,29.30842,0,0,1-5.5-.51c-.12-.02-.24-.04-.35-.07a4.68608,4.68608,0,0,1-.65-.14,1.4756,1.4756,0,0,1-.35-.08A29.96137,29.96137,0,0,1,1.55,39.5c-.12012-.33-.23-.66-.32007-1a29.32328,29.32328,0,0,1-1.22-8C0,30.34,0,30.17,0,30s0-.34.01-.5a29.32256,29.32256,0,0,1,1.22-8c.09009-.34.2-.67.32007-1A29.98009,29.98009,0,0,1,49.15,6.92c.02991.03.06995.05.1.08a2.62755,2.62755,0,0,1,.25.22c.22.18.43994.37.65.56.12.11.24.22.35.33A29.86951,29.86951,0,0,1,60,30Z"/><path class="b" d="M35.65,8.5v1H25.88l-10,12H1.23c.09009-.34.2-.67.32007-1H15.40991l10-12Z"/><path class="b" d="M38.83008,5.51A1.0872,1.0872,0,0,0,38.65,5.5a3.50206,3.50206,0,0,0-3.46008,3,3.15146,3.15146,0,0,0,0,1,3.50206,3.50206,0,0,0,3.46008,3,1.0872,1.0872,0,0,0,.18005-.01,3.49434,3.49434,0,0,0,0-6.98ZM38.65,11.5a2.5,2.5,0,0,1,0-5,1.0872,1.0872,0,0,1,.18005.01,2.49622,2.49622,0,0,1,0,4.98A1.0872,1.0872,0,0,1,38.65,11.5Z"/><path class="b" d="M38.06006,15.51A1.0872,1.0872,0,0,0,37.88,15.5a3.50206,3.50206,0,0,0-3.46008,3,3.15146,3.15146,0,0,0,0,1,3.50206,3.50206,0,0,0,3.46008,3,1.0872,1.0872,0,0,0,.18005-.01,3.49434,3.49434,0,0,0,0-6.98ZM37.88,21.5a2.5,2.5,0,0,1,0-5,1.0872,1.0872,0,0,1,.18005.01,2.49622,2.49622,0,0,1,0,4.98A1.0872,1.0872,0,0,1,37.88,21.5Z"/><path class="b" d="M24.83008,23.51A1.0872,1.0872,0,0,0,24.65,23.5a3.49778,3.49778,0,0,0-.5,6.96,2.06567,2.06567,0,0,0,.35.03.75639.75639,0,0,0,.15.01,1.0872,1.0872,0,0,0,.18005-.01,1.73169,1.73169,0,0,0,.31995-.03A1.3576,1.3576,0,0,0,25.5,30.39a3.49389,3.49389,0,0,0-.66992-6.88Zm0,5.98a1.0872,1.0872,0,0,1-.18005.01,2.5,2.5,0,0,1,0-5,1.0872,1.0872,0,0,1,.18005.01,2.49622,2.49622,0,0,1,0,4.98Z"/><path class="b" d="M14.06006,26.51A1.0872,1.0872,0,0,0,13.88,26.5a3.50206,3.50206,0,0,0-3.46008,3,3.15146,3.15146,0,0,0,0,1,3.50206,3.50206,0,0,0,3.46008,3,1.0872,1.0872,0,0,0,.18005-.01,3.49434,3.49434,0,0,0,0-6.98ZM13.88,32.5a2.5,2.5,0,0,1,0-5,1.0872,1.0872,0,0,1,.18005.01,2.49622,2.49622,0,0,1,0,4.98A1.0872,1.0872,0,0,1,13.88,32.5Z"/><path class="b" d="M24.06006,43.51A1.0872,1.0872,0,0,0,23.88,43.5a3.49832,3.49832,0,0,0-.73,6.92,1.96544,1.96544,0,0,0,.35.06c.13.01.25.02.38.02a1.0872,1.0872,0,0,0,.18005-.01.13852.13852,0,0,0,.09,0,1.97112,1.97112,0,0,0,.35-.05,3.49439,3.49439,0,0,0-.43994-6.93Zm.02,5.98h-.04a.86039.86039,0,0,1-.16.01,2.5,2.5,0,0,1,0-5,1.0872,1.0872,0,0,1,.18005.01,2.497,2.497,0,0,1,.02,4.98Z"/><path class="b" d="M48.68994,38.5H48.65v1h.03992a2.52259,2.52259,0,0,0,0-1Zm.65015,0a3.48253,3.48253,0,0,0-3.28-2.99A1.0872,1.0872,0,0,0,45.88,35.5a3.5,3.5,0,0,0,0,7,1.0872,1.0872,0,0,0,.18005-.01,3.48258,3.48258,0,0,0,3.28-2.99,3.15146,3.15146,0,0,0,0-1ZM45.88,41.5a2.5,2.5,0,0,1,0-5,1.0872,1.0872,0,0,1,.18005.01,2.49622,2.49622,0,0,1,0,4.98A1.0872,1.0872,0,0,1,45.88,41.5Z"/><path class="b" d="M50.5,25.56a1.341,1.341,0,0,0-.35-.04V25.51a.13852.13852,0,0,0-.09,0A1.0872,1.0872,0,0,0,49.88,25.5c-.13,0-.25.01-.38.02a1.971,1.971,0,0,0-.35.06,3.49159,3.49159,0,0,0-2.7301,2.92,3.15146,3.15146,0,0,0,0,1,3.50206,3.50206,0,0,0,3.46008,3,1.0872,1.0872,0,0,0,.18005-.01A3.49439,3.49439,0,0,0,50.5,25.56Zm-.62,5.94a2.5,2.5,0,0,1,0-5,1.0872,1.0872,0,0,1,.18005.01,2.49622,2.49622,0,0,1,0,4.98A1.0872,1.0872,0,0,1,49.88,31.5Z"/><path class="b" d="M34.65,18.5v1h-2.5V59.92c-.21008.02-.43005.03-.65.04-.11.01-.23.01-.35.01V18.5Z"/><path class="b" d="M10.65,29.5v1H.01C0,30.34,0,30.17,0,30s0-.34.01-.5Z"/><path class="b" d="M25.15,30v9.5H1.55c-.12012-.33-.23-.66-.32007-1H24.15V30Z"/><path class="b" d="M24.15,50v9.42a4.68608,4.68608,0,0,1-.65-.14,1.4756,1.4756,0,0,1-.35-.08V50Z"/><path class="b" d="M39.5,58.45c.22-.06.44-.14.65-.22V29.5h6.5v-1h-7.5V58.57Z"/><path class="b" d="M50.15,7.78V26h-1V6.92c.02991.03.06995.05.1.08a2.62755,2.62755,0,0,1,.25.22C49.72,7.4,49.93994,7.59,50.15,7.78Z"/><path class="b" d="M58.77,38.5c-.09009.34-.2.67-.32007,1H48.65v-1Z"/><path class="c" d="M36,8.5v1H26.23l-10,12h-15c.09009-.34.2-.67.32007-1H15.77l10-12Z"/><path class="c" d="M39,5.5a.9677.9677,0,0,0-.16992.01A3.48333,3.48333,0,0,0,35.54,8.5a3.142,3.142,0,0,0,0,1,3.48339,3.48339,0,0,0,3.29,2.99A.9677.9677,0,0,0,39,12.5a3.5,3.5,0,0,0,0-7Zm0,1a2.5,2.5,0,0,1,0,5,.9677.9677,0,0,1-.16992-.01,2.49548,2.49548,0,0,1,0-4.98A.9677.9677,0,0,1,39,6.5Z"/><path class="c" d="M38.24,15.5a1.08427,1.08427,0,0,0-.17993.01,3.48232,3.48232,0,0,0-3.28,2.99,3.142,3.142,0,0,0,0,1,3.48238,3.48238,0,0,0,3.28,2.99,1.08427,1.08427,0,0,0,.17993.01,3.5,3.5,0,0,0,0-7Zm0,1a2.5,2.5,0,0,1,0,5,1.08427,1.08427,0,0,1-.17993-.01,2.49621,2.49621,0,0,1,0-4.98A1.08427,1.08427,0,0,1,38.24,16.5Z"/><path class="c" d="M25,23.5a.9677.9677,0,0,0-.16992.01A3.49361,3.49361,0,0,0,24.15,30.39a1.97005,1.97005,0,0,0,.35.06995,1.83935,1.83935,0,0,0,.33008.03A.9677.9677,0,0,0,25,30.5a.75639.75639,0,0,0,.15-.01,2.06567,2.06567,0,0,0,.35-.03A3.49778,3.49778,0,0,0,25,23.5Zm0,1a2.5,2.5,0,0,1,0,5,.9677.9677,0,0,1-.16992-.01,2.49548,2.49548,0,0,1,0-4.98A.9677.9677,0,0,1,25,24.5Z"/><path class="c" d="M14.24,26.5a1.08427,1.08427,0,0,0-.17993.01,3.48232,3.48232,0,0,0-3.28,2.99,3.142,3.142,0,0,0,0,1,3.48238,3.48238,0,0,0,3.28,2.99,1.08427,1.08427,0,0,0,.17993.01,3.5,3.5,0,0,0,0-7Zm0,1a2.5,2.5,0,1,1,0,5,1.08427,1.08427,0,0,1-.17993-.01,2.49621,2.49621,0,0,1,0-4.98A1.08427,1.08427,0,0,1,14.24,27.5Z"/><path class="c" d="M24.24,43.5a1.08427,1.08427,0,0,0-.17993.01,3.49324,3.49324,0,0,0-.91,6.81,2.01667,2.01667,0,0,0,.35.1,2.60221,2.60221,0,0,0,.56006.07.13852.13852,0,0,0,.09,0v.01h.09a2.25818,2.25818,0,0,0,.26-.01,3.49982,3.49982,0,0,0-.26-6.99Zm0,1a2.5,2.5,0,1,1,0,5,.85779.85779,0,0,1-.15991-.01h-.04a2.497,2.497,0,0,1,.02-4.98A1.08427,1.08427,0,0,1,24.24,44.5Z"/><path class="c" d="M49.7,38.5a3.50193,3.50193,0,0,0-3.46-3,1.08427,1.08427,0,0,0-.17993.01,3.49434,3.49434,0,0,0,0,6.98,1.08427,1.08427,0,0,0,.17993.01,3.50193,3.50193,0,0,0,3.46-3,3.142,3.142,0,0,0,0-1Zm-3.46-2a2.51673,2.51673,0,0,1,2.45,2,2.52259,2.52259,0,0,1,0,1,2.51673,2.51673,0,0,1-2.45,2,1.08427,1.08427,0,0,1-.17993-.01,2.49621,2.49621,0,0,1,0-4.98A1.08427,1.08427,0,0,1,46.24,36.5Z"/><path class="c" d="M47.74,29a2.50035,2.50035,0,0,1,2.32007-2.49A1.0872,1.0872,0,0,0,49.88,26.5a2.5,2.5,0,0,0,0,5,1.0872,1.0872,0,0,0,.18005-.01A2.5004,2.5004,0,0,1,47.74,29Zm2.76-3.49a2.25818,2.25818,0,0,0-.26-.01.276.276,0,0,0-.09.01.13852.13852,0,0,0-.09,0A2.60218,2.60218,0,0,0,49.5,25.58a2.0168,2.0168,0,0,0-.35.1,3.4882,3.4882,0,0,0-2.37,2.82,3.142,3.142,0,0,0,0,1,3.48238,3.48238,0,0,0,3.28,2.99,1.08427,1.08427,0,0,0,.17993.01,3.49982,3.49982,0,0,0,.26-6.99Zm-.43994,1A1.08427,1.08427,0,0,1,50.24,26.5a2.5,2.5,0,0,1,0,5,1.08427,1.08427,0,0,1-.17993-.01,2.49621,2.49621,0,0,1,0-4.98Z"/><path class="c" d="M35,18.5v1H32.5V59.89a1.98628,1.98628,0,0,1-.35.03c-.21008.02-.43005.03-.65.04V18.5Z"/><path class="c" d="M11,29.5v1H.01C0,30.34,0,30.17,0,30s0-.34.01-.5Z"/><path class="c" d="M25.5,30v9.5H1.55c-.12012-.33-.23-.66-.32007-1H24.5V30Z"/><path class="c" d="M24.5,50v9.49c-.12-.02-.24-.04-.35-.07a4.68608,4.68608,0,0,1-.65-.14V50Z"/><path class="c" d="M47,28.5v1H40.5V58.1a3.61228,3.61228,0,0,1-.35.13c-.21008.08-.43005.16-.65.22V28.5Z"/><path class="c" d="M50.5,8.11V26h-1V7.22c.22.18.43994.37.65.56C50.27,7.89,50.39,8,50.5,8.11Z"/><path class="c" d="M58.77,38.5c-.09009.34-.2.67-.32007,1H49v-1Z"/></svg>