<?xml version="1.0" encoding="UTF-8" standalone="no"?>
<svg
   width="134.08273"
   height="192.16977"
   viewBox="0 0 35.478291 50.852001"
   version="1.1"
   id="svg25"
   sodipodi:docname="skill_GMaps.svg"
   inkscape:version="1.1.2 (0a00cf5339, 2022-02-04)"
   xmlns:inkscape="http://www.inkscape.org/namespaces/inkscape"
   xmlns:sodipodi="http://sodipodi.sourceforge.net/DTD/sodipodi-0.dtd"
   xmlns:xlink="http://www.w3.org/1999/xlink"
   xmlns="http://www.w3.org/2000/svg"
   xmlns:svg="http://www.w3.org/2000/svg">
  <sodipodi:namedview
     id="namedview27"
     pagecolor="#ffffff"
     bordercolor="#666666"
     borderopacity="1.0"
     inkscape:pageshadow="2"
     inkscape:pageopacity="0.0"
     inkscape:pagecheckerboard="0"
     showgrid="false"
     fit-margin-top="0"
     fit-margin-left="0"
     fit-margin-right="0"
     fit-margin-bottom="0"
     inkscape:zoom="0.783"
     inkscape:cx="104.08685"
     inkscape:cy="18.518519"
     inkscape:window-width="1871"
     inkscape:window-height="1056"
     inkscape:window-x="49"
     inkscape:window-y="24"
     inkscape:window-maximized="1"
     inkscape:current-layer="svg25" />
  <path
     d="m 9.7729042,37.68 a 51.38,51.38 0 0 1 4.0069998,5.91 c 1.022,1.938 1.448,3.252 2.195,5.587 0.458,1.29 0.872,1.675 1.762,1.675 0.97,0 1.41,-0.655 1.75,-1.668 0.706,-2.205 1.26,-3.888 2.134,-5.478 1.715,-3.07 3.846,-5.798 5.94,-8.42 0.567,-0.742 4.232,-5.065 5.882,-8.476 0,0 2.028,-3.747 2.028,-8.98 0,-4.895 -2,-8.29 -2,-8.29 l -5.758,1.542 -3.497,9.21 -0.865,1.27 -0.173,0.23 -0.23,0.288 -0.404,0.46 -0.577,0.577 -3.114,2.537 -7.785,4.495 z"
     fill="#34a853"
     id="path2" />
  <path
     d="m 1.7379042,26.18 c 1.9,4.34 5.564,8.155 8.043,11.503 L 22.947904,22.086 c 0,0 -1.855,2.426 -5.22,2.426 -3.748,0 -6.776,-2.993 -6.776,-6.767 0,-2.588 1.557,-4.366 1.557,-4.366 l -8.9379998,2.395 z"
     fill="#fbbc04"
     id="path4" />
  <path
     d="m 23.094904,0.802 c 4.373,1.41 8.116,4.37 10.38,8.735 l -10.523,12.54 c 0,0 1.557,-1.81 1.557,-4.382 0,-3.862 -3.252,-6.747 -6.765,-6.747 -3.322,0 -5.23,2.422 -5.23,2.422 v -7.9 z"
     fill="#4285f4"
     id="path6" />
  <path
     d="M 4.1499042,6.343 C 6.7619042,3.218 11.357904,0 17.693904,0 c 3.074,0 5.39,0.807 5.39,0.807 l -10.58,12.57 H 5.0079042 Z"
     fill="#1a73e8"
     id="path8" />
  <path
     d="m 1.7379042,26.18 c 0,0 -1.74799995,-3.423 -1.74799995,-8.382 0,-4.687 1.82199995,-8.784 4.15999995,-11.455 l 8.3599998,7.035 z"
     fill="#ea4335"
     id="path10" />
  <g
     fill="#767676"
     id="g20"
     transform="translate(-0.06209575,0.01)">
    <path
       d="M 181.68,41.235 V 14.508 h 3.434 l 9.295,16.275 h 0.15 l 9.295,-16.275 h 3.434 v 26.727 h -3.434 V 25.37 l 0.15,-4.48 h -0.15 l -8.36,14.67 h -2.015 l -8.36,-14.67 h -0.15 l 0.15,4.48 v 15.864 z m 35.648,0.56 c -1.94,0 -3.565,-0.56 -4.87,-1.68 -1.305,-1.12 -1.96,-2.6 -1.96,-4.442 0,-2 0.77,-3.552 2.314,-4.685 1.544,-1.133 3.446,-1.698 5.7,-1.698 2.016,0 3.67,0.373 4.965,1.12 v -0.523 c 0,-1.344 -0.46,-2.42 -1.38,-3.228 -0.92,-0.808 -2.053,-1.213 -3.398,-1.213 -0.995,0 -1.896,0.236 -2.705,0.7 -0.809,0.464 -1.362,1.12 -1.66,1.94 l -3.136,-1.343 c 0.423,-1.095 1.257,-2.1 2.5,-3.042 1.243,-0.942 2.886,-1.4 4.927,-1.4 2.34,0 4.28,0.685 5.823,2.053 1.543,1.368 2.314,3.298 2.314,5.787 V 41.2 h -3.284 v -2.54 h -0.15 c -1.37,2.1 -3.373,3.135 -6,3.135 z m 0.56,-3.135 c 1.418,0 2.705,-0.53 3.863,-1.586 1.158,-1.056 1.736,-2.3 1.736,-3.75 -0.97,-0.797 -2.426,-1.195 -4.367,-1.195 -1.668,0 -2.925,0.36 -3.77,1.083 -0.845,0.723 -1.27,1.568 -1.27,2.538 0,0.896 0.386,1.605 1.157,2.128 0.771,0.523 1.655,0.784 2.65,0.784 z m 21.742,3.135 c -1.393,0 -2.644,-0.3 -3.75,-0.896 -1.106,-0.596 -1.935,-1.344 -2.48,-2.24 h -0.15 l 0.15,2.538 v 8.063 h -3.434 V 22.908 h 3.286 v 2.538 h 0.15 c 0.547,-0.896 1.374,-1.642 2.48,-2.24 1.106,-0.598 2.358,-0.896 3.75,-0.896 2.364,0 4.405,0.933 6.122,2.8 1.717,1.867 2.576,4.18 2.576,6.943 0,2.763 -0.86,5.077 -2.576,6.943 -1.716,1.866 -3.758,2.8 -6.122,2.8 z m -0.56,-3.135 c 1.593,0 2.96,-0.604 4.106,-1.8 1.146,-1.196 1.717,-2.806 1.717,-4.797 0,-1.991 -0.572,-3.6 -1.717,-4.797 -1.145,-1.197 -2.514,-1.8 -4.106,-1.8 -1.617,0 -2.993,0.597 -4.125,1.792 -1.132,1.195 -1.697,2.8 -1.697,4.815 0,2.015 0.566,3.62 1.697,4.815 1.131,1.195 2.507,1.792 4.125,1.792 z m 18.385,3.135 c -2.04,0 -3.726,-0.498 -5.058,-1.493 -1.332,-0.995 -2.3,-2.24 -2.93,-3.733 l 3.06,-1.27 c 0.97,2.3 2.626,3.433 4.966,3.433 1.07,0 1.948,-0.236 2.632,-0.7 0.684,-0.464 1.027,-1.095 1.027,-1.866 0,-1.194 -0.834,-2.004 -2.502,-2.426 l -3.695,-0.895 c -1.17,-0.298 -2.277,-0.865 -3.322,-1.698 -1.045,-0.833 -1.568,-1.96 -1.568,-3.377 0,-1.617 0.715,-2.93 2.146,-3.94 1.431,-1.01 3.13,-1.512 5.095,-1.512 1.617,0 3.06,0.367 4.33,1.1 a 6.21,6.21 0 0 1 2.725,3.154 l -2.987,1.232 c -0.67,-1.617 -2.065,-2.426 -4.18,-2.426 -1.02,0 -1.88,0.212 -2.575,0.634 -0.695,0.422 -1.045,0.996 -1.045,1.718 0,1.045 0.8,1.754 2.426,2.128 l 3.62,0.858 c 1.717,0.398 2.986,1.083 3.807,2.053 0.821,0.97 1.232,2.066 1.232,3.286 0,1.642 -0.672,3 -2.016,4.106 -1.344,1.106 -3.073,1.642 -5.2,1.642 z M 79.916,25.3 H 65.83 v 4.18 h 10 c -0.493,5.86 -5.37,8.36 -9.973,8.36 A 10.98,10.98 0 0 1 54.828,26.712 c 0,-6.327 4.898,-11.2 11.04,-11.2 4.74,0 7.53,3.022 7.53,3.022 l 2.927,-3.03 c 0,0 -3.757,-4.18 -10.607,-4.18 -8.723,0 -15.473,7.363 -15.473,15.316 0,7.792 6.35,15.393 15.696,15.393 8.22,0 14.24,-5.632 14.24,-13.96 0,-1.756 -0.255,-2.772 -0.255,-2.772 z"
       id="path12" />
    <use
       xlink:href="#B"
       id="use14"
       x="0"
       y="0"
       width="100%"
       height="100%" />
    <use
       xlink:href="#B"
       x="21.476"
       id="use16"
       y="0"
       width="100%"
       height="100%" />
    <path
       d="m 134.102,22.327 c -5.305,0 -9.476,4.647 -9.476,9.862 0,5.94 4.834,9.88 9.383,9.88 2.813,0 4.308,-1.117 5.414,-2.4 v 1.946 c 0,3.405 -2.068,5.445 -5.2,5.445 -3.015,0 -4.526,-2.242 -5.052,-3.514 l -3.793,1.586 c 1.346,2.845 4.054,5.813 8.878,5.813 5.275,0 9.296,-3.322 9.296,-10.3 v -17.73 h -4.138 v 1.672 c -1.272,-1.37 -3.012,-2.265 -5.32,-2.265 z m 0.384,3.87 c 2.602,0 5.272,2.22 5.272,6.013 0,3.856 -2.665,5.98 -5.33,5.98 -2.828,0 -5.46,-2.296 -5.46,-5.944 0,-3.8 2.732,-6.05 5.518,-6.05 z m 27.534,-3.87 c -5.004,0 -9.207,3.98 -9.207,9.857 0,6.216 4.683,9.904 9.687,9.904 4.176,0 6.74,-2.285 8.268,-4.332 l -3.4,-2.27 c -0.885,1.374 -2.366,2.718 -4.835,2.718 -2.775,0 -4.05,-1.52 -4.84,-2.992 l 13.234,-5.5 -0.687,-1.6 c -1.28,-3.152 -4.262,-5.784 -8.2,-5.784 z m 0.172,3.796 c 1.804,0 3.1,0.96 3.653,2.108 l -8.838,3.694 c -0.38,-2.86 2.328,-5.802 5.186,-5.802 z m -15.7,15.377 h 4.346 V 12.4 h -4.346 z"
       id="path18" />
  </g>
  <defs
     id="defs23">
    <path
       id="B"
       d="m 91.48,22.327 c -5.78,0 -9.922,4.518 -9.922,9.788 0,5.348 4.018,9.95 10,9.95 5.407,0 9.836,-4.132 9.836,-9.836 0,-6.537 -5.153,-9.904 -9.904,-9.904 z m 0.057,3.877 c 2.843,0 5.536,2.298 5.536,6 0,3.624 -2.683,5.99 -5.55,5.99 -3.15,0 -5.635,-2.523 -5.635,-6.017 0,-3.418 2.455,-5.972 5.648,-5.972 z" />
  </defs>
</svg>
