<?xml version="1.0" encoding="UTF-8" standalone="no"?>
<!-- Generator: Adobe Illustrator 13.0.1, SVG Export Plug-In . SVG Version: 6.00 Build 14948)  -->

<svg
   version="1.1"
   id="Layer_1"
   x="0px"
   y="0px"
   width="40.685001"
   height="40.686001"
   viewBox="0 0 40.685 40.686"
   enable-background="new 0 0 158.253 40.686"
   xml:space="preserve"
   sodipodi:docname="skill_Plone.svg"
   inkscape:version="1.1.2 (0a00cf5339, 2022-02-04)"
   xmlns:inkscape="http://www.inkscape.org/namespaces/inkscape"
   xmlns:sodipodi="http://sodipodi.sourceforge.net/DTD/sodipodi-0.dtd"
   xmlns="http://www.w3.org/2000/svg"
   xmlns:svg="http://www.w3.org/2000/svg"><defs
   id="defs35" /><sodipodi:namedview
   id="namedview33"
   pagecolor="#ffffff"
   bordercolor="#666666"
   borderopacity="1.0"
   inkscape:pageshadow="2"
   inkscape:pageopacity="0.0"
   inkscape:pagecheckerboard="0"
   showgrid="false"
   fit-margin-top="0"
   fit-margin-left="0"
   fit-margin-right="0"
   fit-margin-bottom="0"
   inkscape:zoom="4.9477733"
   inkscape:cx="71.648392"
   inkscape:cy="35.26839"
   inkscape:window-width="1871"
   inkscape:window-height="1056"
   inkscape:window-x="49"
   inkscape:window-y="24"
   inkscape:window-maximized="1"
   inkscape:current-layer="Layer_1" />
<g
   id="g30"
   transform="translate(-0.099,0.045)">
	<path
   fill="#0095d3"
   d="M 65.327,23.208 H 58.738 V 34.596 H 54.345 V 5.638 h 10.981 c 5.653,0 9.271,3.742 9.271,8.785 0,5.043 -3.618,8.785 -9.27,8.785 z M 65.082,9.583 h -6.345 v 9.639 h 6.345 c 3.05,0 5.124,-1.749 5.124,-4.799 0,-3.051 -2.074,-4.84 -5.124,-4.84 z"
   id="path2" />
	<path
   fill="#0095d3"
   d="m 83.969,34.596 c -3.904,0 -5.652,-2.644 -5.652,-5.693 V 5.638 h 4.148 v 23.021 c 0,1.587 0.567,2.399 2.235,2.399 h 1.83 v 3.538 z"
   id="path4" />
	<path
   fill="#0095d3"
   d="m 104.762,32.399 c -1.344,1.384 -3.377,2.44 -6.184,2.44 -2.805,0 -4.799,-1.058 -6.141,-2.44 -1.951,-2.032 -2.439,-4.637 -2.439,-8.134 0,-3.457 0.488,-6.061 2.439,-8.094 1.342,-1.383 3.336,-2.44 6.141,-2.44 2.807,0 4.84,1.059 6.184,2.44 1.951,2.033 2.439,4.637 2.439,8.094 0.002,3.498 -0.488,6.101 -2.439,8.134 z m -3.133,-13.786 c -0.773,-0.773 -1.83,-1.181 -3.051,-1.181 -1.219,0 -2.236,0.406 -3.01,1.181 -1.26,1.261 -1.422,3.416 -1.422,5.652 0,2.236 0.162,4.393 1.422,5.653 0.773,0.771 1.791,1.22 3.01,1.22 1.221,0 2.277,-0.447 3.051,-1.22 1.262,-1.262 1.424,-3.417 1.424,-5.653 0,-2.236 -0.162,-4.392 -1.424,-5.652 z"
   id="path6" />
	<path
   fill="#0095d3"
   d="M 123.643,34.596 V 22.029 c 0,-3.214 -1.83,-4.597 -4.147,-4.597 -2.317,0 -4.271,1.423 -4.271,4.597 v 12.566 h -4.147 v -20.62 h 4.065 v 2.074 c 1.425,-1.546 3.416,-2.318 5.49,-2.318 2.115,0 3.865,0.691 5.084,1.871 1.586,1.545 2.074,3.497 2.074,5.815 v 13.178 z"
   id="path8" />
	<path
   fill="#0095d3"
   d="m 135.772,25.486 c 0,3.537 1.871,5.774 5.246,5.774 2.317,0 3.539,-0.649 5.004,-2.115 l 2.643,2.481 c -2.115,2.114 -4.107,3.213 -7.727,3.213 -5.166,0 -9.273,-2.725 -9.273,-10.574 0,-6.671 3.457,-10.534 8.744,-10.534 5.531,0 8.744,4.067 8.744,9.925 v 1.83 z m 8.703,-5.695 c -0.65,-1.545 -2.113,-2.604 -4.066,-2.604 -1.951,0 -3.457,1.059 -4.107,2.604 -0.406,0.936 -0.488,1.546 -0.529,2.807 h 9.273 c -0.043,-1.261 -0.163,-1.872 -0.571,-2.807 z"
   id="path10" />
	<circle
   fill="#0095d3"
   cx="17.815001"
   cy="11.516"
   r="4.402"
   id="circle12" />
	<path
   fill="#0095d3"
   d="m 31.167,20.311 c 0,2.433 -1.969,4.401 -4.403,4.401 -2.427,0 -4.401,-1.97 -4.401,-4.401 0,-2.433 1.975,-4.401 4.401,-4.401 2.436,-10e-4 4.403,1.969 4.403,4.401 z"
   id="path14" />
	<circle
   fill="#0095d3"
   cx="17.801001"
   cy="29.131001"
   r="4.402"
   id="circle16" />
	<g
   id="g20">
		<path
   fill="#0095d3"
   d="M 20.441,-0.045 C 9.207,-0.044 0.1,9.063 0.099,20.298 0.1,31.532 9.207,40.639 20.441,40.641 31.676,40.639 40.782,31.534 40.784,20.298 40.783,9.063 31.677,-0.044 20.441,-0.045 Z m 11.45,31.792 C 28.954,34.681 24.919,36.489 20.441,36.49 15.963,36.489 11.928,34.679 8.991,31.747 6.058,28.81 4.25,24.775 4.249,20.298 4.25,15.82 6.058,11.785 8.992,8.848 c 2.937,-2.934 6.972,-4.742 11.45,-4.743 4.478,10e-4 8.513,1.81 11.45,4.743 2.934,2.938 4.742,6.973 4.743,11.45 -0.002,4.477 -1.81,8.512 -4.744,11.449 z"
   id="path18" />
	</g>
	<g
   id="g24">
		<path
   fill="#0095d3"
   d="m 153.985,9.95 c -1.195,0 -2.164,0.971 -2.164,2.168 0.002,1.197 0.969,2.168 2.164,2.168 1.199,0 2.172,-0.971 2.172,-2.168 0,-1.197 -0.973,-2.168 -2.172,-2.168 z m 0,4.018 c -1.021,-0.002 -1.846,-0.827 -1.846,-1.85 0.002,-1.021 0.825,-1.849 1.846,-1.851 1.023,0.002 1.852,0.828 1.854,1.851 -0.003,1.023 -0.831,1.848 -1.854,1.85 z"
   id="path22" />
	</g>
	<g
   id="g28">
		<path
   fill="#0095d3"
   d="m 154.507,13.409 -0.54,-1.08 h -0.486 v 1.08 h -0.389 v -2.564 h 0.994 c 0.484,0 0.796,0.313 0.796,0.75 0,0.367 -0.224,0.602 -0.513,0.68 l 0.592,1.136 z m -0.451,-2.214 h -0.575 v 0.803 h 0.575 c 0.261,0 0.437,-0.147 0.437,-0.399 0,-0.252 -0.176,-0.404 -0.437,-0.404 z"
   id="path26" />
	</g>
</g>
</svg>
