<?xml version="1.0" encoding="UTF-8"?>
<svg width="25mm" height="15mm" version="1.1" viewBox="0 0 25 15" xmlns="http://www.w3.org/2000/svg">
 <g transform="matrix(1.0117452 0 0 .86066059 -.24503103 1.9879552)" font-family="'Ubuntu Mono'" letter-spacing="0px" word-spacing="0px">
  <g transform="scale(.80234522 1.2463463)" fill="#dd3b3b" stroke-width=".303038" aria-label="XML ">
   <path d="m6.076145 9.8101902q0.24243-0.5454675 0.509103-1.1030565 0.266673-0.5697105 0.557589-1.1272995 0.290916-0.5697105 0.606075-1.1272995t0.654561-1.0788135l-2.1939915-3.9637305h1.066692l1.745496 3.369777 1.8545895-3.369777h1.078814l-2.266721 3.9152445q0.424253 0.678804 0.824262 1.406094 0.412131 0.7151685 0.800019 1.478823t0.751533 1.600038h-1.066692q-0.206065-0.509103-0.521224-1.1757855-0.303038-0.678804-0.666683-1.3697295-0.363645-0.703047-0.7636545-1.2485145-0.339402 0.48486-0.678804 1.115178-0.3272805 0.630318-0.654561 1.3212435-0.315159 0.6909255-0.606075 1.357608z"/>
   <path d="m12.936908 9.8101902q0.03636-1.042449 0.09697-2.109141t0.133336-2.133384q0.08485-1.066692 0.181823-2.109141 0.109093-1.0545705 0.24243-2.0485335h0.933355q0.24243 0.7878975 0.460617 1.503066 0.230309 0.703047 0.448496 1.3939725 0.230308 0.6909255 0.448495 1.4182155 0.218187-0.7151685 0.424253-1.406094 0.218187-0.6909255 0.436374-1.406094 0.230308-0.7151685 0.472738-1.503066h0.945477q0.193944 1.260636 0.303038 2.6303655 0.109093 1.357608 0.169701 2.8000665 0.07273 1.4424585 0.145458 2.9697675h-0.945477q-0.03636-0.945477-0.07273-2.1455055-0.02424-1.21215-0.06061-2.5091505-0.03636-1.2970005-0.09697-2.5091505l-1.272754 3.9152445h-0.896991l-1.333365-3.9152445q-0.01212 1.2000285-0.06061 2.497029t-0.09697 2.5091505q-0.03636 1.21215-0.06061 2.157627z"/>
   <path d="m20.573446 9.8101902v-8.4001995h0.945477v7.588059h3.975852v0.8121405z"/>
  </g>
  <g transform="scale(.48104688 2.0787995)" fill="#3ca4a4" stroke-width=".430735" aria-label="&lt;">
   <path d="m8.9758083 6.863095-7.4429709-3.1701543v-1.1371206l7.4429709-3.17015423 0.3790402 1.10266236-6.3230795 2.61882307 6.3230795 2.6532813z"/>
  </g>
  <g transform="scale(-.48104688 2.0787995)" fill="#3ca4a4" stroke-width=".430735" aria-label="&lt;">
   <path d="m-43.768387 6.8616454-7.442971-3.1701543v-1.1371205l7.442971-3.17015431 0.37904 1.10266235-6.323079 2.61882306 6.323079 2.6532813z"/>
  </g>
 </g>
</svg>
