<svg width="71" height="54" version="1.1" viewBox="0 0 71 54" xml:space="preserve" xmlns="http://www.w3.org/2000/svg">
  <style type="text/css">
    .st2{fill:#282828}
  </style>
  <g transform="matrix(.59 0 0 .59 0 2)">
    <path d="m119 13c-1.4-5.2-5.5-9.3-11-11-9.5-2.6-48-2.6-48-2.6s-38 0-48 2.5c-5.1 1.4-9.3 5.6-11 11-2.5 9.5-2.5 29-2.5 29s0 20 2.5 29c1.4 5.2 5.5 9.3 11 11 9.6 2.6 48 2.6 48 2.6s38 0 48-2.5c5.2-1.4 9.3-5.5 11-11 2.5-9.5 2.5-29 2.5-29s0.1-20-2.5-29z" fill="#282828"/>
    <path d="m80 42-32-18v36z" fill="#fff"/>
  </g>
</svg>
