<?xml version="1.0" encoding="UTF-8" standalone="no"?>
<!-- Generator: Adobe Illustrator 15.0.2, SVG Export Plug-In . SVG Version: 6.00 Build 0)  -->

<svg
   version="1.2"
   id="Layer_1"
   x="0px"
   y="0px"
   width="83.536003"
   height="106.457"
   viewBox="0 0 83.536003 106.457"
   xml:space="preserve"
   sodipodi:docname="skill_Drupal.svg"
   inkscape:version="1.1.2 (0a00cf5339, 2022-02-04)"
   xmlns:inkscape="http://www.inkscape.org/namespaces/inkscape"
   xmlns:sodipodi="http://sodipodi.sourceforge.net/DTD/sodipodi-0.dtd"
   xmlns="http://www.w3.org/2000/svg"
   xmlns:svg="http://www.w3.org/2000/svg"><defs
   id="defs29" /><sodipodi:namedview
   id="namedview27"
   pagecolor="#ffffff"
   bordercolor="#666666"
   borderopacity="1.0"
   inkscape:pageshadow="2"
   inkscape:pageopacity="0.0"
   inkscape:pagecheckerboard="0"
   showgrid="false"
   lock-margins="false"
   fit-margin-top="0"
   fit-margin-left="0"
   fit-margin-right="0"
   fit-margin-bottom="0"
   inkscape:zoom="1.566"
   inkscape:cx="89.08046"
   inkscape:cy="36.079183"
   inkscape:window-width="1871"
   inkscape:window-height="1056"
   inkscape:window-x="49"
   inkscape:window-y="24"
   inkscape:window-maximized="1"
   inkscape:current-layer="Layer_1" />
<g
   id="g22">
	<path
   fill="#2aa9e0"
   d="m 243.936,25 h -21.889 l 0.036,40.955 c 0,11.969 -5.131,21.652 -17.1,21.652 -11.974,0 -17.152,-9.683 -17.152,-21.652 V 25.04 h -21.832 l -0.006,40.915 c 0,23.651 15.203,42.82 38.858,42.82 23.648,0 39.078,-19.169 39.078,-42.82 z"
   id="path2" />
	<rect
   x="441.30899"
   y="0.045000002"
   fill="#2aa9e0"
   width="21.781"
   height="106.616"
   id="rect4" />
	<g
   id="g10">
		<path
   fill="#2aa9e0"
   d="M 479.17,2.062 V 0.146 h 8.487 v 1.915 h -3.104 v 8.441 h -2.277 v -8.44 z"
   id="path6" />
		<path
   fill="#2aa9e0"
   d="m 492.051,0.146 2.423,7.121 h 0.029 l 2.29,-7.121 H 500 v 10.356 h -2.132 v -7.34 h -0.029 l -2.538,7.34 h -1.756 l -2.538,-7.267 h -0.028 v 7.267 h -2.132 V 0.146 Z"
   id="path8" />
	</g>
	<path
   fill="#2aa9e0"
   d="m 148.194,24.109 c -18.775,-4.333 -30.619,14.319 -31.111,15.319 -0.242,0.491 -0.251,0.777 -1.083,0.755 -0.687,-0.014 -0.766,-0.755 -0.766,-0.755 l -2.33,-14.268 h -19.51 v 81.43 h 21.871 V 62.514 c 0,-3.602 9.7,-20.872 28.492,-16.426 9.504,2.248 13.535,6.281 13.535,6.281 0,0 0,-15.718 0,-24.806 -3.517,-1.834 -5.93,-2.723 -9.098,-3.454 z"
   id="path12" />
	<path
   fill="#2aa9e0"
   d="m 273.616,133.411 v -29.3 c 0.002,0 0.005,0.003 0.007,0.005 l 0.003,-10.972 c 0,0 0.035,-0.878 0.826,-0.889 0.706,-0.008 0.863,0.46 1.035,0.889 1.658,4.126 10.779,19.847 31.018,14.916 18.118,-5.104 31.407,-21.741 31.407,-41.5 0,-23.805 -19.303,-43.111 -43.114,-43.111 -23.811,0 -43.113,19.306 -43.113,43.111 0,0 0,58.935 0,66.85 h 21.931 z m 21.2,-88.668 c 12.055,0 21.825,9.772 21.825,21.818 0,12.056 -9.77,21.829 -21.825,21.829 -12.053,0 -21.82,-9.772 -21.82,-21.829 0.001,-12.046 9.768,-21.818 21.82,-21.818 z"
   id="path14" />
	<path
   fill="#2aa9e0"
   d="m 410.536,106.627 h 21.931 V 66.561 c 0,-23.805 -19.3,-43.111 -43.112,-43.111 -23.812,0 -43.115,19.306 -43.115,43.111 0,19.758 13.29,36.395 31.408,41.5 20.24,4.931 29.357,-10.79 31.018,-14.916 0.172,-0.429 0.327,-0.896 1.035,-0.889 0.791,0.011 0.824,0.889 0.824,0.889 m 0.632,-26.584 c 0,12.056 -9.771,21.829 -21.821,21.829 -12.053,0 -21.825,-9.772 -21.825,-21.829 0,-12.046 9.772,-21.818 21.825,-21.818 12.051,0 21.821,9.772 21.821,21.818 z"
   id="path16" />
	<g
   id="g20">
		<path
   fill="#2aa9e0"
   d="M 24.879,106.457 H 0 V 0 h 26.695 c 32.325,0 56.841,5.931 56.841,53.229 0,46.84 -25.969,53.228 -58.657,53.228 z m 5.94,-88.004 h -8.795 v 69.533 l 9.032,0.231 c 18.522,0 30.452,-1.686 30.452,-34.989 0,-31.937 -10.532,-34.775 -30.689,-34.775 z"
   id="path18" />
	</g>
</g>
<path
   display="none"
   fill="#2aa9e0"
   d="m 787.524,258.661 h 29.516 v -53.924 c 0,-32.041 -25.976,-58.023 -58.024,-58.023 -32.05,0 -58.028,25.982 -58.028,58.023 0,26.592 17.886,48.984 42.271,55.854 27.242,6.637 39.513,-14.521 41.747,-20.076 0.231,-0.576 0.44,-1.205 1.394,-1.195 1.064,0.014 1.108,1.195 1.108,1.195 m 0.852,-35.778 c 0,16.227 -13.15,29.379 -29.369,29.379 -16.223,0 -29.375,-13.152 -29.375,-29.379 0,-16.213 13.152,-29.365 29.375,-29.365 16.219,0 29.369,13.152 29.369,29.365 z"
   id="path24" />
</svg>
