<svg version="1.1" viewBox="0 0 60 60" xmlns="http://www.w3.org/2000/svg"><defs><style>.a{fill:#01a650;}.b{fill:#007d49;}.c{fill:#82df5d;}</style></defs><path class="a" d="m60 30a30 30 0 0 1-1.2 8.5c-0.09 0.34-0.2 0.67-0.32 1a30 30 0 0 1-18 19 3.6 3.6 0 0 1-0.35 0.13c-0.21 0.08-0.43 0.16-0.65 0.22l-0.35 0.12a29 29 0 0 1-6.6 1.3 2 2 0 0 1-0.35 0.03c-0.21 0.02-0.43 0.03-0.65 0.04-0.11 0.01-0.23 0.01-0.35 0.01-0.38 0.02-0.76 0.03-1.2 0.03a29 29 0 0 1-5.5-0.51c-0.12-0.02-0.24-0.04-0.35-0.07a4.7 4.7 0 0 1-0.65-0.14 1.5 1.5 0 0 1-0.35-0.08 30 30 0 0 1-22-20c-0.12-0.33-0.23-0.66-0.32-1a29 29 0 0 1-1.2-8c-0.0099-0.16-0.0099-0.33-0.0099-0.5s0-0.34 0.01-0.5a29 29 0 0 1 1.2-8c0.09-0.34 0.2-0.67 0.32-1a30 30 0 0 1 48-14c0.03 0.03 0.07 0.05 0.1 0.08a2.6 2.6 0 0 1 0.25 0.22c0.22 0.18 0.44 0.37 0.65 0.56 0.12 0.11 0.24 0.22 0.35 0.33a30 30 0 0 1 9.5 22z" style="display:none"/><path class="b" d="m36 7.7 0.021 2.5-9.6-0.067-10 11h-15c0.09-0.34 0.095-1.3 0.21-1.7l13-0.19 11-12z"/><path class="b" d="m39 5.5c-0.06-0.0083-0.12-0.012-0.18-0.01-1.7 0.0029-3.2 1.3-3.5 3-0.053 0.33-0.053 0.67 0 1 0.25 1.7 1.7 3 3.5 3 0.06 0.0017 0.12-0.0017 0.18-0.01 4.4-0.22 4.4-6.8 0-7zm-0.15 5.1c-1.9 0.066-2.3-3 7e-3 -3.1 0.06-0.0017 0.12 0.0017 0.18 0.01 1.8 0.095 2.2 3-7e-3 3-0.06 0.0083-0.12 0.012-0.18 0.01z"/><path class="b" d="m38 16c-0.06-0.0083-0.12-0.012-0.18-0.01-1.7 0.0029-3.2 1.3-3.5 3-0.053 0.33-0.053 0.67 0 1 0.25 1.7 1.7 3 3.5 3 0.06 0.0017 0.12-0.0017 0.18-0.01 4.4-0.22 4.4-6.8 0-7zm-0.21 4.9c-2-0.12-1.5-2.5 0.086-2.4 0.06-0.0017 0.12 0.0017 0.18 0.01 1.9 0.082 2 2.5-0.086 2.4-0.06 0.0083-0.12 0.012-0.18 0.01z"/><path class="b" d="m25 24c-0.06-0.0083-0.12-0.012-0.18-0.01-4.3-0.0031-4.8 6.3-0.5 7 0.12 0.02 0.23 0.03 0.35 0.03 0.05 0.0083 0.1 0.012 0.15 0.01 0.06 0.0017 0.12-0.0017 0.18-0.01 0.11-6.1e-5 0.21-0.01 0.32-0.03 0.12-0.0078 0.24-0.031 0.35-0.07 3.9-0.97 3.3-6.7-0.67-6.9zm-0.041 5.1c-0.06 0.0083-0.12 0.012-0.18 0.01-2-0.055-2-3.2-0.0073-3.1 0.06-0.0017 0.12 0.0017 0.18 0.01 1.8 0.078 1.9 3.2 0.0073 3.1z"/><path class="b" d="m14 27c-0.06-0.0083-0.12-0.012-0.18-0.01-1.7 0.0029-3.2 1.3-3.5 3-0.053 0.33-0.053 0.67 0 1 0.25 1.7 1.7 3 3.5 3 0.06 0.0017 0.12-0.0017 0.18-0.01 4.4-0.22 4.4-6.8 0-7zm-0.31 4.9c-1.8-0.074-1.8-3 0.082-3 0.06-0.0017 0.12 0.0017 0.18 0.01 2.1 0.31 1.7 2.9-0.082 3-0.06 0.0083-0.12 0.012-0.18 0.01z"/><path class="b" d="m24 44c-0.06-0.0083-0.12-0.012-0.18-0.01-4.2-0.0021-4.8 6-0.73 6.9 0.11 0.031 0.23 0.051 0.35 0.06 0.13 0.01 0.25 0.02 0.38 0.02 0.06 0.0017 0.12-0.0017 0.18-0.01 0.029 0.01 0.061 0.01 0.09 0 0.12-0.0061 0.24-0.023 0.35-0.05 4.1-0.73 3.7-6.7-0.44-6.9zm-0.088 5.2h-0.04c-0.053 0.0083-0.11 0.012-0.16 0.01-1.9 0.029-2.3-3 0.041-3.2 0.06-0.0017 0.12 0.0017 0.18 0.01 2.1 0.049 2 3.2-0.021 3.2z"/><path class="b" d="m49 38h-0.04v1h0.04c0.067-0.33 0.067-0.67 0-1zm0.65 0c-0.23-1.7-1.6-2.9-3.3-3-0.06-0.0083-0.12-0.012-0.18-0.01-4.7 0-4.7 7 0 7 0.06 0.0017 0.12-0.0017 0.18-0.01 1.7-0.081 3-1.3 3.3-3 0.053-0.33 0.053-0.67 0-1zm-3.5 1.9c-2-0.05-1.9-2.8-0.11-2.8 0.06-0.0017 0.12 0.0017 0.18 0.01 2.1 0.035 1.8 2.9 0.11 2.8-0.06 0.0083-0.12 0.012-0.18 0.01z"/><path class="b" d="m50 26c-0.11-0.029-0.23-0.042-0.35-0.04v-0.01c-0.029-0.01-0.061-0.01-0.09 0-0.06-0.0083-0.12-0.012-0.18-0.01-0.13 0-0.25 0.01-0.38 0.02-0.12 0.0094-0.24 0.03-0.35 0.06-1.4 0.3-2.5 1.5-2.7 2.9-0.053 0.33-0.053 0.67 0 1 0.25 1.7 1.7 3 3.5 3 0.06 0.0017 0.12-0.0017 0.18-0.01 4.2-0.21 4.5-6.2 0.44-6.9zm-0.66 5.1c-2.1-0.24-1.8-3.4-0.017-3.4 0.06 0.0013 0.12 0.0084 0.18 0.01 2.1 0.058 2.1 3.2 0.017 3.4-0.06 5e-3 -0.12 0.017-0.18 0.01z"/><path class="b" d="m35 18-0.0033 2.4-1.5 0.014-0.01 40c-0.21 0.02-1.4 0.016-1.6 0.026-0.11 0.01-0.23 0.01-0.35 0.01l0.013-42z"/><path class="b" d="m11 29v2h-11c-0.01-0.32-0.01-0.66-0.01-1s0-0.68 0.01-1z" style="stroke-width:1.4"/><path class="b" d="m26 30 0.0033 9.5-24-0.01c-0.12-0.33-0.18-1.9-0.27-2.2l22 0.15-0.014-7.4z"/><path class="b" d="m25 50v9.4a9.4 4.7 0 0 1-1.3-0.14 3 1.5 0 0 1-0.7-0.08v-9.2z" style="stroke-width:1.4"/><path class="b" d="m40 58c0.22-0.06 1.7-0.68 1.9-0.76l0.4-27 5.2 0.011-0.12-3.5-7.7 0.02-0.014 31z"/><path class="b" d="m51 7.8v18h-2v-19c0.06 0.03 0.14 0.05 0.2 0.08a5.3 2.6 0 0 1 0.5 0.22c0.44 0.18 0.88 0.37 1.3 0.56z" style="stroke-width:1.4"/><path class="b" d="m59 38c-0.09 0.68-0.2 1.3-0.32 2h-9.8v-2z" style="stroke-width:1.4"/><path class="c" d="m36 8.5v1h-9.8l-10 12h-15c0.09-0.34 0.2-0.67 0.32-1h14l10-12z" style="display:none"/><path class="c" d="m39 5.5a0.97 0.97 0 0 0-0.17 0.01 3.5 3.5 0 0 0-3.3 3 3.1 3.1 0 0 0 0 1 3.5 3.5 0 0 0 3.3 3 0.97 0.97 0 0 0 0.17 0.01 3.5 3.5 0 0 0 0-7zm0 1a2.5 2.5 0 0 1 0 5 0.97 0.97 0 0 1-0.17-0.01 2.5 2.5 0 0 1 0-5 0.97 0.97 0 0 1 0.17-0.01z" style="display:none"/><path class="c" d="m38 16a1.1 1.1 0 0 0-0.18 0.01 3.5 3.5 0 0 0-3.3 3 3.1 3.1 0 0 0 0 1 3.5 3.5 0 0 0 3.3 3 1.1 1.1 0 0 0 0.18 0.01 3.5 3.5 0 0 0 0-7zm0 1a2.5 2.5 0 0 1 0 5 1.1 1.1 0 0 1-0.18-0.01 2.5 2.5 0 0 1 0-5 1.1 1.1 0 0 1 0.18-0.01z" style="display:none"/><path class="c" d="m25 24a0.97 0.97 0 0 0-0.17 0.01 3.5 3.5 0 0 0-0.68 6.9 2 2 0 0 0 0.35 0.07 1.8 1.8 0 0 0 0.33 0.03 0.97 0.97 0 0 0 0.17 0.01 0.76 0.76 0 0 0 0.15-0.01 2.1 2.1 0 0 0 0.35-0.03 3.5 3.5 0 0 0-0.5-7zm0 1a2.5 2.5 0 0 1 0 5 0.97 0.97 0 0 1-0.17-0.01 2.5 2.5 0 0 1 0-5 0.97 0.97 0 0 1 0.17-0.01z" style="display:none"/><path class="c" d="m14 26a1.1 1.1 0 0 0-0.18 0.01 3.5 3.5 0 0 0-3.3 3 3.1 3.1 0 0 0 0 1 3.5 3.5 0 0 0 3.3 3 1.1 1.1 0 0 0 0.18 0.01 3.5 3.5 0 0 0 0-7zm0 1a2.5 2.5 0 1 1 0 5 1.1 1.1 0 0 1-0.18-0.01 2.5 2.5 0 0 1 0-5 1.1 1.1 0 0 1 0.18-0.01z" style="display:none"/><path class="c" d="m24 44a1.1 1.1 0 0 0-0.18 0.01 3.5 3.5 0 0 0-0.91 6.8 2 2 0 0 0 0.35 0.1 2.6 2.6 0 0 0 0.56 0.07 0.14 0.14 0 0 0 0.09 0v0.01h0.09a2.3 2.3 0 0 0 0.26-0.01 3.5 3.5 0 0 0-0.26-7zm0 1a2.5 2.5 0 1 1 0 5 0.86 0.86 0 0 1-0.16-0.01h-0.04a2.5 2.5 0 0 1 0.02-5 1.1 1.1 0 0 1 0.18-0.01z" style="display:none"/><path class="c" d="m50 38a3.5 3.5 0 0 0-3.5-3 1.1 1.1 0 0 0-0.18 0.01 3.5 3.5 0 0 0 0 7 1.1 1.1 0 0 0 0.18 0.01 3.5 3.5 0 0 0 3.5-3 3.1 3.1 0 0 0 0-1zm-3.5-2a2.5 2.5 0 0 1 2.4 2 2.5 2.5 0 0 1 0 1 2.5 2.5 0 0 1-2.4 2 1.1 1.1 0 0 1-0.18-0.01 2.5 2.5 0 0 1 0-5 1.1 1.1 0 0 1 0.18-0.01z" style="display:none"/><path class="c" d="m48 29a2.5 2.5 0 0 1 2.3-2.5 1.1 1.1 0 0 0-0.18-0.01 2.5 2.5 0 0 0 0 5 1.1 1.1 0 0 0 0.18-0.01 2.5 2.5 0 0 1-2.3-2.5zm2.8-3.5a2.3 2.3 0 0 0-0.26-0.01 0.28 0.28 0 0 0-0.09 0.01 0.14 0.14 0 0 0-0.09 0 2.6 2.6 0 0 0-0.56 0.07 2 2 0 0 0-0.35 0.1 3.5 3.5 0 0 0-2.4 2.8 3.1 3.1 0 0 0 0 1 3.5 3.5 0 0 0 3.3 3 1.1 1.1 0 0 0 0.18 0.01 3.5 3.5 0 0 0 0.26-7zm-0.44 1a1.1 1.1 0 0 1 0.18-0.01 2.5 2.5 0 0 1 0 5 1.1 1.1 0 0 1-0.18-0.01 2.5 2.5 0 0 1 0-5z" style="display:none"/><path class="c" d="m35 18v1h-2.5v40a2 2 0 0 1-0.35 0.03c-0.21 0.02-0.43 0.03-0.65 0.04v-41z" style="display:none"/><path class="c" d="m11 30v1h-11c-0.01-0.16-0.01-0.33-0.01-0.5s0-0.34 0.01-0.5z" style="display:none"/><path class="c" d="m26 30v9.5h-24c-0.12-0.33-0.23-0.66-0.32-1h23v-8.5z" style="display:none"/><path class="c" d="m24 50v9.5c-0.12-0.02-0.24-0.04-0.35-0.07a4.7 4.7 0 0 1-0.65-0.14v-9.3z" style="display:none"/><path class="c" d="m47 28v1h-6.5v29a3.6 3.6 0 0 1-0.35 0.13c-0.21 0.08-0.43 0.16-0.65 0.22v-30z" style="display:none"/><path class="c" d="m50 8.1v18h-1v-19c0.22 0.18 0.44 0.37 0.65 0.56 0.12 0.11 0.24 0.22 0.35 0.33z" style="display:none"/><path class="c" d="m59 38c-0.09 0.34-0.2 0.67-0.32 1h-9.4v-1z" style="display:none"/></svg>
